# xmcd
#
# Track frame offsets:
#	150
#	23277
#	50229
#	74559
#	100636
#	121521
#	146985
#	169251
#	197481
#	223709
#
# Disc length: 3377 seconds
#
# Revision: 1497919498
# Processed by: cddbd v1.5.2PL0 Copyright (c) Steve Scherf et al.
# Submitted via: EZCDAudioConverter 8.0.2.1
#
DISCID=8d0d2f0a
DTITLE=Mạnh Quỳnh - Trở Về Cát Bụi
DYEAR=1998
DGENRE=
TTITLE0=Trở Về Cát Bụi
TTITLE1=Nỗi niềm chưa trọn
TTITLE2=Em cứ hẹn
TTITLE3=Đêm với mình
TTITLE4=Giọt sầu trinh nữ
TTITLE5=Hoang vu
TTITLE6=Nói với người tình
TTITLE7=CHuyện bình thường
TTITLE8=Tình đời 2
TTITLE9=Hôn nhau lần cuối
EXTD=
EXTT0=
EXTT1=
EXTT2=
EXTT3=
EXTT4=
EXTT5=
EXTT6=
EXTT7=
EXTT8=
EXTT9=
PLAYORDER=
